Coordinates
version=1
nRows=54
nColumns=12
inDegrees=yes

Units are S.I. units (second, meters, Newtons, ...)
Angles are in degrees

endheader
time	SC_y	SC_z	SC_x	AC_y	AC_z	AC_x	GH_y	GH_z	GH_yy	EL_x	PS_y
       0.0              -53.07          7.223          55.03          63.19         -14.04          7.561          166.9         -6.911         -98.79          32.89          18.57
  0.001555              -53.07          7.223          55.04          63.19         -14.04          7.558          166.9         -6.908         -98.78          32.88          18.58
   0.00311              -53.06          7.224          55.04          63.19         -14.03          7.556          166.9         -6.905         -98.76          32.88          18.59
  0.004665              -53.06          7.224          55.04          63.19         -14.03          7.553          166.9         -6.902         -98.75          32.88          18.61
   0.00622              -53.06          7.225          55.05          63.19         -14.03           7.55          166.9         -6.899         -98.73          32.87          18.62
  0.007775              -53.05          7.225          55.05          63.19         -14.03          7.546          166.8         -6.896         -98.72          32.87          18.64
   0.00933              -53.05          7.226          55.06          63.19         -14.03          7.543          166.8         -6.892          -98.7          32.86          18.65
   0.01089              -53.04          7.227          55.06          63.19         -14.02          7.539          166.8         -6.888         -98.68          32.86          18.67
   0.01244              -53.04          7.227          55.07          63.19         -14.02          7.535          166.7         -6.884         -98.66          32.85          18.69
     0.014              -53.03          7.228          55.07          63.19         -14.02          7.531          166.7         -6.879         -98.63          32.85          18.71
   0.01555              -53.03          7.229          55.08          63.19         -14.02          7.526          166.7         -6.874         -98.61          32.84          18.73
   0.01711              -53.02           7.23          55.08          63.19         -14.01          7.521          166.6         -6.869         -98.58          32.83          18.76
   0.01866              -53.02          7.231          55.09          63.19         -14.01          7.515          166.6         -6.863         -98.56          32.83          18.78
   0.02022              -53.01          7.232           55.1          63.19         -14.01           7.51          166.5         -6.857         -98.53          32.82          18.81
   0.02177               -53.0          7.233          55.11          63.19          -14.0          7.503          166.5          -6.85         -98.49          32.81          18.84
   0.02333              -52.99          7.235          55.12          63.19          -14.0          7.496          166.4         -6.843         -98.46           32.8          18.87
   0.02488              -52.98          7.236          55.13          63.19         -13.99          7.489          166.3         -6.835         -98.42          32.79          18.91
   0.02644              -52.98          7.237          55.14          63.19         -13.99          7.481          166.3         -6.827         -98.38          32.78          18.95
   0.02799              -52.96          7.239          55.15          63.19         -13.98          7.472          166.2         -6.817         -98.33          32.77          18.99
   0.02955              -52.95          7.241          55.16          63.19         -13.98          7.462          166.1         -6.807         -98.28          32.76          19.04
    0.0311              -52.94          7.243          55.18          63.19         -13.97          7.451          166.0         -6.796         -98.22          32.75          19.09
   0.03266              -52.93          7.245          55.19          63.19         -13.96           7.44          165.9         -6.783         -98.16          32.73          19.14
   0.03421              -52.91          7.248          55.21          63.19         -13.95          7.427          165.8          -6.77          -98.1          32.71          19.21
   0.03577              -52.89           7.25          55.23          63.18         -13.95          7.412          165.7         -6.755         -98.02          32.69          19.27
   0.03732              -52.88          7.253          55.25          63.18         -13.94          7.396          165.6         -6.738         -97.94          32.67          19.35
   0.03888              -52.86          7.257          55.27          63.18         -13.92          7.378          165.4         -6.719         -97.85          32.65          19.44
   0.04043              -52.83           7.26           55.3          63.18         -13.91          7.359          165.2         -6.698         -97.74          32.63          19.53
   0.04199              -52.81          7.264          55.33          63.18          -13.9          7.336          165.1         -6.674         -97.63           32.6          19.64
   0.04354              -52.78          7.269          55.36          63.18         -13.88          7.311          164.8         -6.648         -97.49          32.56          19.76
    0.0451              -52.74          7.274           55.4          63.18         -13.86          7.282          164.6         -6.617         -97.35          32.53           19.9
   0.04665               -52.7          7.281          55.44          63.18         -13.84          7.249          164.3         -6.583         -97.17          32.48          20.05
   0.04821              -52.66          7.288          55.49          63.18         -13.82          7.211          164.0         -6.543         -96.98          32.43          20.23
   0.04976              -52.61          7.296          55.55          63.17         -13.79          7.167          163.6         -6.497         -96.75          32.38          20.44
   0.05132              -52.55          7.305          55.62          63.17         -13.76          7.117          163.2         -6.444         -96.49          32.31          20.68
   0.05287              -52.48          7.316          55.69          63.17         -13.72          7.057          162.7         -6.382         -96.18          32.24          20.97
   0.05443               -52.4          7.329          55.78          63.17         -13.68          6.987          162.1         -6.308         -95.82          32.15           21.3
   0.05598               -52.3          7.345          55.89          63.16         -13.63          6.904          161.4         -6.221         -95.39          32.04           21.7
   0.05754              -52.18          7.363          56.02          63.16         -13.57          6.805          160.6         -6.116         -94.87          31.91          22.17
   0.05909              -52.04          7.386          56.18          63.15         -13.49          6.684          159.6         -5.989         -94.25          31.75          22.75
   0.06065              -51.87          7.413          56.38          63.15          -13.4          6.537          158.3         -5.835         -93.49          31.56          23.45
    0.0622              -51.66          7.447          56.61          63.14         -13.29          6.355          156.8         -5.644         -92.55          31.33          24.32
   0.06376              -51.39          7.489          56.91          63.13         -13.15          6.129          154.9         -5.405         -91.37          31.04           25.4
   0.06531              -51.06          7.542          57.29          63.12         -12.97          5.843          152.5         -5.105         -89.89          30.67          26.76
   0.06687              -50.63          7.609          57.76           63.1         -12.74           5.48          149.4         -4.724         -88.01           30.2          28.49
   0.06842              -50.09          7.696          58.37          63.08         -12.46          5.016          145.5         -4.236         -85.61           29.6           30.7
   0.06998              -49.39          7.807          59.15          63.06         -12.09           4.42          140.5         -3.609         -82.52          28.83          33.54
   0.07153              -48.49          7.948          60.15          63.03         -11.61          3.658          134.1         -2.809         -78.58          27.84          37.17
   0.07309              -47.37          8.126          61.41          62.99         -11.02          2.701          126.0         -1.803         -73.62          26.61          41.74
   0.07464               -46.0          8.343          62.94          62.94         -10.29          1.534          116.2        -0.5765         -67.58           25.1           47.3
    0.0762              -44.42          8.594          64.72          62.88         -9.453         0.1822          104.8         0.8449         -60.58          23.35          53.75
   0.07775               -42.7          8.867          66.64          62.82         -8.543         -1.282           92.5          2.384         -52.99          21.46          60.73
   0.07931              -40.99          9.139          68.56          62.76         -7.633         -2.746          80.17          3.923         -45.41          19.57          67.71
   0.08086               -39.4           9.39          70.33           62.7         -6.793         -4.099          68.79          5.344          -38.4          17.82          74.16
   0.08242              -38.03          9.607          71.86          62.65         -6.068         -5.265          58.97           6.57         -32.36          16.32          79.72
